<svg xmlns="http://www.w3.org/2000/svg" xmlns:xlink="http://www.w3.org/1999/xlink" width="803" height="227" viewBox="0 0 803 227"><defs><clipPath id="a"><rect width="803" height="227" fill="none"/></clipPath><filter id="b" x="0" y="0" width="200" height="227" filterUnits="userSpaceOnUse"><feOffset dy="5" input="SourceAlpha"/><feGaussianBlur stdDeviation="3" result="c"/><feFlood flood-opacity="0.161"/><feComposite operator="in" in2="c"/><feComposite in="SourceGraphic"/></filter><filter id="d" x="201" y="0" width="200" height="227" filterUnits="userSpaceOnUse"><feOffset dy="5" input="SourceAlpha"/><feGaussianBlur stdDeviation="3" result="e"/><feFlood flood-opacity="0.161"/><feComposite operator="in" in2="e"/><feComposite in="SourceGraphic"/></filter><filter id="f" x="402" y="0" width="200" height="227" filterUnits="userSpaceOnUse"><feOffset dy="5" input="SourceAlpha"/><feGaussianBlur stdDeviation="3" result="g"/><feFlood flood-opacity="0.161"/><feComposite operator="in" in2="g"/><feComposite in="SourceGraphic"/></filter><filter id="h" x="603" y="0" width="200" height="227" filterUnits="userSpaceOnUse"><feOffset dy="5" input="SourceAlpha"/><feGaussianBlur stdDeviation="3" result="i"/><feFlood flood-opacity="0.161"/><feComposite operator="in" in2="i"/><feComposite in="SourceGraphic"/></filter><filter id="j" x="25" y="27" width="150" height="169" filterUnits="userSpaceOnUse"><feOffset dy="3" input="SourceAlpha"/><feGaussianBlur stdDeviation="3" result="k"/><feFlood flood-opacity="0.161"/><feComposite operator="in" in2="k"/><feComposite in="SourceGraphic"/></filter><filter id="l" x="226" y="27" width="150" height="169" filterUnits="userSpaceOnUse"><feOffset dy="3" input="SourceAlpha"/><feGaussianBlur stdDeviation="3" result="m"/><feFlood flood-opacity="0.161"/><feComposite operator="in" in2="m"/><feComposite in="SourceGraphic"/></filter><filter id="n" x="427" y="27" width="150" height="169" filterUnits="userSpaceOnUse"><feOffset dy="3" input="SourceAlpha"/><feGaussianBlur stdDeviation="3" result="o"/><feFlood flood-opacity="0.161"/><feComposite operator="in" in2="o"/><feComposite in="SourceGraphic"/></filter><filter id="p" x="628" y="27" width="150" height="169" filterUnits="userSpaceOnUse"><feOffset dy="3" input="SourceAlpha"/><feGaussianBlur stdDeviation="3" result="q"/><feFlood flood-opacity="0.161"/><feComposite operator="in" in2="q"/><feComposite in="SourceGraphic"/></filter><filter id="r" x="52.5" y="19.5" width="96" height="182" filterUnits="userSpaceOnUse"><feOffset dy="3" input="SourceAlpha"/><feGaussianBlur stdDeviation="3" result="s"/><feFlood flood-opacity="0.161"/><feComposite operator="in" in2="s"/><feComposite in="SourceGraphic"/></filter><filter id="t" x="253.5" y="19.5" width="97" height="182" filterUnits="userSpaceOnUse"><feOffset dy="3" input="SourceAlpha"/><feGaussianBlur stdDeviation="3" result="u"/><feFlood flood-opacity="0.161"/><feComposite operator="in" in2="u"/><feComposite in="SourceGraphic"/></filter><filter id="v" x="453.5" y="20.5" width="97" height="182" filterUnits="userSpaceOnUse"><feOffset dy="3" input="SourceAlpha"/><feGaussianBlur stdDeviation="3" result="w"/><feFlood flood-opacity="0.161"/><feComposite operator="in" in2="w"/><feComposite in="SourceGraphic"/></filter><filter id="x" x="645.5" y="19.5" width="115" height="182" filterUnits="userSpaceOnUse"><feOffset dy="3" input="SourceAlpha"/><feGaussianBlur stdDeviation="3" result="y"/><feFlood flood-opacity="0.161"/><feComposite operator="in" in2="y"/><feComposite in="SourceGraphic"/></filter></defs><g clip-path="url(#a)"><g transform="matrix(1, 0, 0, 1, 0, 0)" filter="url(#b)"><path d="M133.592,0a40,40,0,0,1,34.689,20.083l29.283,51a40,40,0,0,1,0,39.835l-29.283,51A40,40,0,0,1,133.592,182H75.408a40,40,0,0,1-34.689-20.083l-29.283-51a40,40,0,0,1,0-39.835l29.283-51A40,40,0,0,1,75.408,0Z" transform="translate(191 4) rotate(90)" fill="#ad65dc"/></g><g transform="matrix(1, 0, 0, 1, 0, 0)" filter="url(#d)"><path d="M133.592,0a40,40,0,0,1,34.689,20.083l29.283,51a40,40,0,0,1,0,39.835l-29.283,51A40,40,0,0,1,133.592,182H75.408a40,40,0,0,1-34.689-20.083l-29.283-51a40,40,0,0,1,0-39.835l29.283-51A40,40,0,0,1,75.408,0Z" transform="translate(392 4) rotate(90)" fill="#d260da"/></g><g transform="matrix(1, 0, 0, 1, 0, 0)" filter="url(#f)"><path d="M133.592,0a40,40,0,0,1,34.689,20.083l29.283,51a40,40,0,0,1,0,39.835l-29.283,51A40,40,0,0,1,133.592,182H75.408a40,40,0,0,1-34.689-20.083l-29.283-51a40,40,0,0,1,0-39.835l29.283-51A40,40,0,0,1,75.408,0Z" transform="translate(593 4) rotate(90)" fill="#5ea3d9"/></g><g transform="matrix(1, 0, 0, 1, 0, 0)" filter="url(#h)"><path d="M133.592,0a40,40,0,0,1,34.689,20.083l29.283,51a40,40,0,0,1,0,39.835l-29.283,51A40,40,0,0,1,133.592,182H75.408a40,40,0,0,1-34.689-20.083l-29.283-51a40,40,0,0,1,0-39.835l29.283-51A40,40,0,0,1,75.408,0Z" transform="translate(794 4) rotate(90)" fill="#54d4cf"/></g><g transform="matrix(1, 0, 0, 1, 0, 0)" filter="url(#j)"><path d="M101.649,0A20,20,0,0,1,119.01,10.07l26.311,46a20,20,0,0,1,0,19.86l-26.311,46A20,20,0,0,1,101.649,132h-52.3A20,20,0,0,1,31.99,121.93L5.68,75.93a20,20,0,0,1,0-19.86l26.311-46A20,20,0,0,1,49.351,0Z" transform="translate(166 33) rotate(90)" fill="#c6a2d8"/></g><g transform="matrix(1, 0, 0, 1, 0, 0)" filter="url(#l)"><path d="M101.649,0A20,20,0,0,1,119.01,10.07l26.311,46a20,20,0,0,1,0,19.86l-26.311,46A20,20,0,0,1,101.649,132h-52.3A20,20,0,0,1,31.99,121.93L5.68,75.93a20,20,0,0,1,0-19.86l26.311-46A20,20,0,0,1,49.351,0Z" transform="translate(367 33) rotate(90)" fill="#d49ce4"/></g><g transform="matrix(1, 0, 0, 1, 0, 0)" filter="url(#n)"><path d="M101.649,0A20,20,0,0,1,119.01,10.07l26.311,46a20,20,0,0,1,0,19.86l-26.311,46A20,20,0,0,1,101.649,132h-52.3A20,20,0,0,1,31.99,121.93L5.68,75.93a20,20,0,0,1,0-19.86l26.311-46A20,20,0,0,1,49.351,0Z" transform="translate(568 33) rotate(90)" fill="#98b6dc"/></g><g transform="matrix(1, 0, 0, 1, 0, 0)" filter="url(#p)"><path d="M101.649,0A20,20,0,0,1,119.01,10.07l26.311,46a20,20,0,0,1,0,19.86l-26.311,46A20,20,0,0,1,101.649,132h-52.3A20,20,0,0,1,31.99,121.93L5.68,75.93a20,20,0,0,1,0-19.86l26.311-46A20,20,0,0,1,49.351,0Z" transform="translate(769 33) rotate(90)" fill="#9ee3e1"/></g><g transform="matrix(1, 0, 0, 1, 0, 0)" filter="url(#r)"><text transform="translate(61.5 155.5)" fill="#fff" font-size="135" font-family="ProductSans-Bold, Product Sans" font-weight="700"><tspan x="0" y="0">S</tspan></text></g><g transform="matrix(1, 0, 0, 1, 0, 0)" filter="url(#t)"><text transform="translate(262.5 155.5)" fill="#fff" font-size="135" font-family="ProductSans-Bold, Product Sans" font-weight="700"><tspan x="0" y="0">E</tspan></text></g><g transform="matrix(1, 0, 0, 1, 0, 0)" filter="url(#v)"><text transform="translate(462.5 156.5)" fill="#fff" font-size="135" font-family="ProductSans-Bold, Product Sans" font-weight="700"><tspan x="0" y="0">T</tspan></text></g><g transform="matrix(1, 0, 0, 1, 0, 0)" filter="url(#x)"><text transform="translate(654.5 155.5)" fill="#fff" font-size="135" font-family="ProductSans-Bold, Product Sans" font-weight="700"><tspan x="0" y="0">A</tspan></text></g></g></svg>